<svg viewBox="0 0 12 12" xmlns="http://www.w3.org/2000/svg"><path d="M10.628 6.525c.102 0 .23-.051.28-.153a.395.395 0 0 0-.05-.536l-1.556-1.25c-.153-.101-.357-.101-.485 0l-1.25 1.02-1.274-1.02c-.153-.101-.357-.101-.485 0L4.482 5.659 3.156 4.587c-.153-.102-.357-.102-.484 0L1.142 5.81a.395.395 0 0 0-.051.535c.153.153.382.179.535.051l1.301-1.045 1.326 1.096c.153.102.357.102.484 0l1.326-1.07 1.275 1.02c.153.101.357.101.485 0l1.25-1.02 1.325 1.07c.051.051.153.077.23.077zm-1.554-.49l-.933.76c-.308.247-.755.247-1.085.026l-.036-.026-.955-.764-1.009.815c-.308.247-.755.247-1.086.026l-.042-.03-1.006-.832-.969.779c-.364.303-.89.25-1.223-.082L.7 6.673a.907.907 0 0 1 .123-1.26l1.53-1.225c.309-.246.756-.246 1.086-.026l.038.028 1.005.812 1.008-.814c.308-.246.755-.246 1.086-.026l.036.026.953.763.934-.763c.308-.246.755-.246 1.086-.026l.036.027 1.563 1.255c.354.296.42.84.15 1.21a.826.826 0 0 1-.706.38.848.848 0 0 1-.564-.2l-.99-.8z" stroke="0"/></svg>
