<svg viewBox="0 0 12 12" xmlns="http://www.w3.org/2000/svg"><path d="M10.53 10.6l-.031.03c-.924.881-2.531.427-4.474-.874-1.923 1.438-3.611 1.934-4.554.921-.907-.973-.448-2.742.89-4.788C1.023 3.842.564 2.074 1.471 1.1 2.41.092 4.087.579 5.999 2.002c1.954-1.469 3.59-1.988 4.53-.98.907.974.448 2.742-.89 4.789 1.338 2.046 1.797 3.815.89 4.788zM9.48 9.59c.264-.347-.16-1.711-1.314-3.364l-.29-.416.29-.416c1.175-1.683 1.593-3.066 1.3-3.382-.228-.244-1.442.213-3.01 1.476L6 3.856l-.456-.367C4.01 2.252 2.783 1.825 2.534 2.09c-.293.316.125 1.7 1.3 3.382l.29.416-.29.416c-1.175 1.683-1.593 3.066-1.3 3.382.249.266 1.475-.161 3.01-1.398l.43-.346.45.321c1.548 1.11 2.778 1.532 3.056 1.327z" stroke="0"/></svg>
